<?xml version="1.0" standalone="no"?>
<!DOCTYPE svg PUBLIC "-//W3C//DTD SVG 20010904//EN"
 "http://www.w3.org/TR/2001/REC-SVG-20010904/DTD/svg10.dtd">
<svg version="1.0" xmlns="http://www.w3.org/2000/svg"
 width="827.000000pt" height="827.000000pt" viewBox="0 0 827.000000 827.000000"
 preserveAspectRatio="xMidYMid meet">
<metadata>
Created by potrace 1.11, written by Peter Selinger 2001-2013
</metadata>
<g transform="translate(0.000000,827.000000) scale(0.100000,-0.100000)"
fill="#000000" stroke="none">
<path d="M20 4156 c0 -2252 3 -4101 6 -4110 6 -15 378 -16 4125 -16 l4119 0 0
4110 0 4110 -4125 0 -4125 0 0 -4094z m8000 3857 c0 -24 0 -7740 0 -7750 0
-10 -781 -13 -3870 -13 -3089 0 -3870 3 -3870 13 0 10 0 7726 0 7750 0 4 1741
7 3870 7 2129 0 3870 -3 3870 -7z"/>
<path d="M437 7832 c-16 -17 -17 -260 -17 -3294 0 -3160 1 -3275 18 -3291 17
-16 283 -17 3619 -17 3475 0 3600 1 3616 18 16 17 17 260 17 3294 0 3160 -1
3275 -18 3291 -17 16 -283 17 -3619 17 -3475 0 -3600 -1 -3616 -18z m7173
-3292 l0 -3230 -3550 0 -3550 0 0 3230 0 3230 3550 0 3550 0 0 -3230z"/>
<path d="M860 6144 c0 -947 3 -1423 10 -1419 6 4 10 -7 10 -24 0 -17 -4 -31
-10 -31 -16 0 -13 -553 2 -568 10 -10 10 -17 0 -32 -8 -13 -12 -63 -11 -152 1
-73 3 -125 6 -115 7 27 23 20 24 -10 0 -28 0 -28 10 -5 11 28 33 24 37 -6 3
-18 -2 -22 -25 -22 -16 0 -34 5 -41 12 -9 9 -12 -242 -12 -1130 l0 -1142 1065
0 1065 0 0 430 0 430 -540 0 -540 0 -1 2028 c-1 1115 -1 2074 0 2131 2 87 -1
107 -16 124 -16 20 -16 20 0 8 16 -13 17 -7 17 97 0 67 -4 113 -10 117 -7 4
-7 12 -2 18 12 17 14 75 2 82 -6 4 -7 12 -3 18 5 7 8 57 9 113 0 96 -1 101
-20 100 -12 -1 -24 -9 -28 -18 -15 -36 -56 -10 -42 26 4 10 19 14 47 13 l42
-2 3 178 2 177 -525 0 -525 0 0 -1426z m939 1044 c-1 -31 -1 -31 -8 -8 -5 14
-6 28 -4 33 9 15 13 6 12 -25z m97 -10 c4 -7 3 -8 -4 -4 -7 4 -12 2 -12 -5 0
-7 -3 -10 -6 -6 -6 5 3 27 11 27 2 0 7 -5 11 -12z m-86 -72 c0 -8 -5 -18 -11
-22 -8 -4 -7 -9 2 -15 10 -6 8 -9 -9 -9 -22 0 -22 0 -5 27 17 26 17 27 0 20
-11 -4 -16 -3 -12 3 9 15 35 12 35 -4z m87 4 c1 0 1 -9 0 -19 0 -11 -5 -17 -9
-15 -4 3 -8 0 -8 -7 0 -7 -3 -9 -6 -6 -4 4 -1 14 7 24 8 9 9 14 2 10 -6 -4
-14 -3 -18 3 -3 5 -14 10 -23 10 -14 0 -13 -2 3 -13 10 -8 15 -19 11 -25 -9
-15 -36 -16 -36 -1 0 5 5 7 10 4 6 -3 10 -1 10 4 0 6 -4 11 -10 11 -5 0 -10 7
-10 16 0 14 22 15 77 4z m-97 -111 c0 -17 3 -19 14 -10 11 9 15 9 20 -1 3 -7
3 -3 0 10 -3 12 -1 22 5 22 10 0 15 -30 9 -46 -5 -11 -78 -13 -78 -3 0 6 5 7
10 4 6 -3 10 -2 10 4 0 5 -4 13 -10 16 -15 9 -12 25 5 25 9 0 15 -9 15 -21z
m100 2 c0 -3 -8 -15 -17 -26 -12 -16 -14 -16 -10 -3 3 10 2 20 -4 23 -14 9 -1
25 16 18 8 -3 15 -8 15 -12z m-110 -91 c-12 -8 -11 -10 8 -10 12 0 22 5 22 10
0 6 8 10 18 9 11 0 12 -2 4 -6 -10 -4 -8 -8 5 -18 14 -11 15 -16 6 -26 -9 -9
-16 -9 -26 -1 -10 9 -17 8 -26 -1 -10 -9 -15 -8 -26 6 -16 23 -9 47 14 47 14
0 14 -2 1 -10z m110 -10 c0 -4 -8 -14 -17 -21 -10 -8 -14 -9 -10 -2 4 6 3 14
-3 18 -6 4 -8 10 -5 15 6 10 35 2 35 -10z m-23 -222 c-3 -8 -6 -5 -6 6 -1 11
2 17 5 13 3 -3 4 -12 1 -19z m13 -158 c0 -5 -8 -10 -17 -11 -15 0 -15 -2 2 -9
l20 -9 -20 -1 c-19 -1 -18 -2 3 -10 29 -12 28 -20 -3 -20 -22 0 -25 4 -25 35
0 28 4 35 20 35 11 0 20 -4 20 -10z m10 -200 c0 -5 -6 -10 -12 -10 -9 0 -8 -4
2 -10 13 -9 13 -10 0 -10 -13 0 -13 -1 0 -10 18 -11 7 -25 -15 -17 -15 6 -21
48 -8 60 10 11 33 8 33 -3z m-935 -2535 c0 -14 -3 -25 -7 -25 -4 0 -8 14 -8
32 0 36 13 30 15 -7z m53 7 c2 -7 -5 -12 -15 -12 -15 0 -16 -2 -3 -10 13 -8
13 -10 -1 -10 -21 0 -31 24 -16 39 13 13 29 10 35 -7z m132 -1374 c0 -9 4 -8
10 2 14 22 28 -2 22 -40 -5 -38 -22 -39 -23 -2 l-1 27 -7 -25 c-5 -21 -12 -25
-46 -25 -39 0 -40 1 -43 38 l-3 37 45 0 c30 0 46 -4 46 -12z m260 -28 c0 -36
-2 -40 -25 -40 -14 0 -28 7 -32 16 -5 14 -7 14 -14 1 -10 -16 -99 -21 -99 -5
0 4 6 8 13 9 10 0 10 2 0 6 -20 8 -15 33 7 33 14 0 18 -5 14 -17 -5 -17 -5
-17 6 0 13 20 41 22 58 5 9 -9 12 -9 12 0 0 7 9 12 20 12 11 0 20 5 20 10 0 6
5 10 10 10 6 0 10 -18 10 -40z m90 0 c0 -32 -4 -40 -19 -40 -24 0 -45 25 -37
45 3 8 15 15 26 15 11 0 20 5 20 10 0 6 2 10 5 10 3 0 5 -18 5 -40z m65 -10
c0 -18 -6 -26 -23 -28 -24 -4 -38 18 -28 44 3 9 15 14 28 12 17 -2 23 -10 23
-28z m-355 -19 c0 -6 -4 -13 -10 -16 -5 -3 -10 1 -10 9 0 9 5 16 10 16 6 0 10
-4 10 -9z m50 -308 c0 -10 9 -29 19 -42 14 -19 24 -22 45 -17 14 3 26 13 26
21 0 8 9 15 20 15 13 0 20 -7 20 -20 0 -15 -7 -20 -25 -20 -14 0 -30 -9 -37
-20 -19 -29 -36 -25 -52 14 -8 19 -24 39 -35 46 -27 14 -27 40 -1 40 12 0 20
-7 20 -17z m1001 1 c7 -9 23 -20 36 -25 31 -12 40 -54 18 -79 -15 -16 -31 -20
-85 -20 -38 0 -71 5 -78 12 -21 21 -13 60 21 94 35 37 67 43 88 18z m-306
-227 l90 -157 184 2 183 3 92 158 91 157 92 0 c51 0 93 -2 93 -5 0 -3 -61
-111 -136 -240 l-136 -235 -281 2 -281 3 -26 45 c-15 25 -77 132 -138 238
l-112 193 98 -3 97 -3 90 -158z m-565 103 c0 -6 -35 -10 -85 -10 -50 0 -85 4
-85 10 0 6 35 10 85 10 50 0 85 -4 85 -10z"/>
<path d="M1780 6879 c0 -5 5 -7 10 -4 6 3 10 8 10 11 0 2 -4 4 -10 4 -5 0 -10
-5 -10 -11z"/>
<path d="M1088 2403 c7 -3 16 -2 19 1 4 3 -2 6 -13 5 -11 0 -14 -3 -6 -6z"/>
<path d="M1080 2380 c0 -5 7 -10 15 -10 8 0 15 5 15 10 0 6 -7 10 -15 10 -8 0
-15 -4 -15 -10z"/>
<path d="M1366 2393 c-11 -11 -6 -23 9 -23 8 0 15 4 15 9 0 13 -16 22 -24 14z"/>
<path d="M1308 2373 c7 -3 16 -2 19 1 4 3 -2 6 -13 5 -11 0 -14 -3 -6 -6z"/>
<path d="M1460 2386 c0 -9 7 -16 16 -16 17 0 14 22 -4 28 -7 2 -12 -3 -12 -12z"/>
<path d="M1530 2386 c0 -9 5 -16 10 -16 6 0 10 4 10 9 0 6 -4 13 -10 16 -5 3
-10 -1 -10 -9z"/>
<path d="M2183 2026 c-56 -57 -39 -86 48 -86 39 0 63 5 73 16 9 8 16 18 16 20
0 15 -22 44 -33 44 -7 0 -20 9 -30 20 -23 28 -37 25 -74 -14z"/>
<path d="M6160 4971 l0 -2559 53 -30 c218 -123 294 -429 158 -641 -39 -61
-115 -132 -170 -160 -38 -20 -41 -25 -41 -61 l0 -40 525 0 525 0 0 3025 0
3025 -525 0 -525 0 0 -2559z m155 2439 c4 -6 13 -5 25 2 11 7 23 9 27 5 4 -5
1 -12 -7 -17 -13 -9 -13 -10 0 -10 13 0 13 -1 0 -10 -10 -6 -11 -10 -2 -10 6
0 12 -5 12 -10 0 -11 -44 -9 -55 2 -3 3 -22 3 -42 1 -37 -4 -55 9 -46 34 6 17
43 17 43 1 0 -7 5 -5 11 5 11 19 25 22 34 7z m77 -37 c-10 -28 -10 -28 -11 12
-1 28 2 36 10 28 8 -8 8 -19 1 -40z m122 38 c3 -4 18 -6 33 -4 19 3 24 2 15
-5 -11 -7 -11 -10 2 -15 10 -4 16 1 19 16 4 18 5 17 6 -5 0 -17 7 -28 15 -28
8 0 17 12 19 28 4 26 4 26 6 -5 1 -34 -14 -46 -41 -32 -10 6 -19 5 -23 -1 -7
-11 -35 -2 -35 11 0 4 8 6 18 3 15 -5 15 -4 -1 6 -15 9 -22 9 -36 -4 -10 -9
-25 -16 -34 -16 -23 0 -23 47 1 53 28 8 31 7 36 -2z m161 -18 c10 25 25 21 25
-8 0 -22 -4 -25 -30 -23 -26 2 -30 6 -30 33 l1 30 14 -25 c12 -22 14 -23 20
-7z m-475 -2 c0 -11 6 -21 13 -24 6 -2 9 -8 5 -12 -4 -4 -14 -5 -23 -2 -16 7
-21 57 -5 57 6 0 10 -9 10 -19z m239 -8 c0 -16 -3 -22 -6 -14 -4 11 -7 11 -14
0 -4 -7 -11 -11 -14 -7 -7 7 16 48 27 48 5 0 8 -12 7 -27z m-79 -143 c-11 -7
-11 -10 -2 -10 7 0 10 -6 7 -12 -4 -7 3 -2 14 12 17 20 23 22 30 11 15 -23 2
-39 -29 -37 -16 1 -32 4 -36 8 -10 10 3 38 18 38 9 0 8 -3 -2 -10z m10 -120
c0 -5 -7 -10 -16 -10 -8 0 -12 5 -9 10 3 6 10 10 16 10 5 0 9 -4 9 -10z m32
-20 c6 0 7 8 3 18 -5 13 -3 14 6 5 17 -17 3 -32 -30 -31 -26 1 -27 2 -12 17
12 12 17 13 19 4 2 -7 8 -13 14 -13z m-16 -93 c11 15 15 16 23 4 12 -19 2 -43
-16 -37 -8 3 -23 6 -34 6 -17 0 -18 3 -7 23 11 20 13 20 16 4 4 -18 4 -18 18
0z m-16 -127 c0 -11 -4 -20 -8 -20 -4 0 -8 9 -8 20 0 11 4 20 8 20 4 0 8 -9 8
-20z m17 -12 c-3 -7 -5 -2 -5 12 0 14 2 19 5 13 2 -7 2 -19 0 -25z m27 2 c-6
-6 -10 -3 -10 10 0 13 4 16 10 10 7 -7 7 -13 0 -20z m-2 -93 c12 -18 -3 -34
-32 -35 -25 -1 -29 3 -26 21 3 12 5 22 5 22 10 5 48 -1 53 -8z m181 -4 c-7 -2
-21 -2 -30 0 -10 3 -4 5 12 5 17 0 24 -2 18 -5z m-186 -64 c-25 -21 -37 -39
-38 -57 0 -15 -3 -21 -6 -13 -5 11 -7 11 -14 0 -7 -12 -9 -12 -9 0 0 15 82
101 96 101 5 0 -8 -14 -29 -31z m9 -50 c3 -6 1 -16 -5 -22 -9 -9 -11 -8 -6 6
4 9 3 17 -3 17 -6 0 -13 -8 -15 -17 -4 -14 -5 -12 -6 5 -1 23 22 31 35 11z
m-89 -81 c-3 -8 -6 -5 -6 6 -1 11 2 17 5 13 3 -3 4 -12 1 -19z m86 -31 c3 -8
1 -20 -4 -28 -11 -19 -34 3 -26 25 8 20 23 21 30 3z m-86 -89 c-3 -8 -6 -5 -6
6 -1 11 2 17 5 13 3 -3 4 -12 1 -19z m85 -122 c23 -20 39 -36 35 -36 -25 0
-118 110 -117 137 1 4 10 -8 20 -28 11 -21 38 -53 62 -73z m135 -62 c-3 -3
-12 -4 -19 -1 -8 3 -5 6 6 6 11 1 17 -2 13 -5z m70 0 c-3 -3 -12 -4 -19 -1 -8
3 -5 6 6 6 11 1 17 -2 13 -5z m-305 -679 c-6 -35 -22 -42 -22 -11 0 20 -5 26
-22 26 -19 0 -20 -2 -8 -10 13 -9 13 -10 0 -10 -13 0 -13 -1 0 -10 18 -11 7
-25 -15 -17 -8 4 -15 18 -15 32 0 23 4 25 44 25 41 0 43 -1 38 -25z m73 15 c5
-8 11 -7 21 1 19 15 44 4 44 -20 0 -24 -25 -34 -42 -17 -11 11 -16 11 -27 -1
-18 -20 -35 -11 -39 20 -3 21 1 27 17 27 11 0 23 -5 26 -10z m99 -32 c7 -5 13
1 16 15 8 30 44 30 48 0 2 -13 0 -23 -5 -24 -4 0 -25 -2 -45 -5 -37 -4 -38 -4
-37 28 1 22 3 26 6 13 3 -11 10 -23 17 -27z m114 12 c-1 -23 -4 -27 -14 -20
-8 8 -14 7 -17 -2 -3 -7 -6 2 -6 20 -1 25 3 32 18 32 15 0 19 -7 19 -30z m38
23 c-15 -4 -16 -7 -5 -14 12 -7 12 -9 0 -9 -11 0 -9 -4 5 -15 19 -14 18 -14
-3 -15 -19 0 -23 5 -23 30 0 25 4 30 23 29 19 -1 19 -2 3 -6z m212 -2949 c-4
-21 -75 -27 -82 -8 -7 17 -1 20 45 22 34 3 40 0 37 -14z m-3 -139 c0 -16 -8
-19 -40 -19 -43 0 -58 24 -20 35 36 10 60 3 60 -16z m23 -52 c-15 -2 -42 -2
-60 0 -18 2 -6 4 27 4 33 0 48 -2 33 -4z m-23 -88 c0 -22 -44 -29 -52 -8 -5
12 -7 12 -14 1 -6 -9 -8 -6 -7 8 2 18 8 21 38 19 26 -1 35 -7 35 -20z m23 -52
c-15 -2 -42 -2 -60 0 -18 2 -6 4 27 4 33 0 48 -2 33 -4z m-75 -76 c10 16 52 8
55 -11 3 -14 -3 -16 -38 -14 -43 2 -56 10 -44 29 5 8 9 8 14 -1 4 -7 10 -8 13
-3z m305 -61 c4 -21 -14 -37 -35 -29 -14 5 -18 35 -6 47 12 12 38 1 41 -18z
m-267 -85 c9 -14 10 -14 5 2 -3 9 -1 17 4 17 6 0 10 -9 10 -20 0 -17 -6 -20
-43 -19 -33 2 -43 6 -44 20 -2 23 53 23 68 0z m37 -48 c-15 -2 -42 -2 -60 0
-18 2 -6 4 27 4 33 0 48 -2 33 -4z m-18 -93 c0 -11 -4 -20 -10 -20 -5 0 -7 8
-4 18 5 16 5 16 -6 0 -6 -10 -15 -18 -20 -18 -5 0 -7 8 -4 18 5 16 5 16 -6 0
-12 -20 -41 -13 -33 8 3 9 20 14 44 14 32 0 39 -3 39 -20z m18 -47 c-15 -2
-42 -2 -60 0 -18 2 -6 4 27 4 33 0 48 -2 33 -4z m-78 -85 c0 7 13 12 31 12 23
0 30 -4 27 -17 -2 -11 -15 -17 -44 -18 -36 -2 -41 0 -36 17 4 15 7 17 13 6 7
-10 9 -10 9 0z m78 -55 c-15 -2 -42 -2 -60 0 -18 2 -6 4 27 4 33 0 48 -2 33
-4z m-23 -88 c0 -23 -44 -29 -53 -7 -4 13 -7 12 -13 -4 -7 -18 -8 -17 -8 3 -1
22 15 30 54 28 12 -1 20 -9 20 -20z m-68 -147 c-3 -7 -5 -2 -5 12 0 14 2 19 5
13 2 -7 2 -19 0 -25z m68 7 c0 -12 -8 -19 -23 -20 -25 -2 -36 9 -29 29 8 20
52 13 52 -9z m23 -42 c-15 -2 -42 -2 -60 0 -18 2 -6 4 27 4 33 0 48 -2 33 -4z"/>
<path d="M6240 7385 c0 -8 5 -15 10 -15 6 0 10 7 10 15 0 8 -4 15 -10 15 -5 0
-10 -7 -10 -15z"/>
<path d="M6390 7224 c0 -8 5 -12 10 -9 6 4 8 11 5 16 -9 14 -15 11 -15 -7z"/>
<path d="M6390 6994 c0 -8 5 -12 10 -9 6 4 8 11 5 16 -9 14 -15 11 -15 -7z"/>
<path d="M6390 6764 c0 -8 5 -12 10 -9 6 4 8 11 5 16 -9 14 -15 11 -15 -7z"/>
<path d="M6365 6760 c-3 -5 -1 -10 4 -10 6 0 11 5 11 10 0 6 -2 10 -4 10 -3 0
-8 -4 -11 -10z"/>
<path d="M6390 6534 c0 -8 5 -12 10 -9 6 4 8 11 5 16 -9 14 -15 11 -15 -7z"/>
<path d="M6360 5596 c0 -9 5 -16 10 -16 6 0 10 4 10 9 0 6 -4 13 -10 16 -5 3
-10 -1 -10 -9z"/>
<path d="M6417 5603 c-12 -11 -8 -23 8 -23 8 0 15 7 15 15 0 16 -12 20 -23 8z"/>
<path d="M6516 5603 c-11 -11 -6 -23 9 -23 8 0 15 4 15 9 0 13 -16 22 -24 14z"/>
<path d="M1825 7200 c-4 -6 -3 -16 3 -22 6 -6 12 -6 17 2 4 6 3 16 -3 22 -6 6
-12 6 -17 -2z"/>
<path d="M4320 6119 c-92 -14 -234 -63 -311 -109 -73 -43 -172 -127 -164 -140
11 -19 153 -22 232 -6 111 22 191 65 283 152 44 41 80 76 80 79 0 25 2 27 9
10 4 -11 11 -36 14 -55 6 -32 5 -33 -8 -16 -13 17 -14 16 -11 -10 2 -17 11
-30 25 -35 11 -5 21 -11 21 -14 0 -4 -4 -3 -10 0 -6 4 -10 -7 -10 -25 0 -50
-29 -88 -107 -140 -117 -79 -252 -120 -393 -120 -79 0 -204 22 -225 40 -9 8
-21 -9 -49 -70 -67 -148 -78 -212 -83 -507 -8 -402 11 -542 100 -768 l52 -130
3 213 2 212 35 0 35 0 0 -460 c0 -253 -3 -460 -7 -460 -4 0 -17 10 -29 21
l-23 21 6 -21 c3 -12 1 -21 -6 -21 -9 0 -11 63 -9 243 l3 242 -20 -20 c-11
-11 -64 -56 -118 -99 -104 -85 -187 -177 -244 -269 l-35 -58 1 -144 2 -145
-36 0 c-34 0 -35 1 -36 38 l-1 37 -11 -40 c-8 -28 -12 -241 -12 -690 l0 -650
24 -80 c48 -162 115 -279 217 -376 144 -135 295 -201 529 -230 112 -14 344 -6
451 17 143 29 296 102 387 183 l37 34 58 -55 c124 -118 201 -143 437 -142 266
2 305 24 225 125 -68 86 -95 149 -114 267 l-5 32 69 0 70 0 1 -32 c0 -18 4
-42 9 -53 8 -18 13 77 15 257 l0 51 -79 -2 -78 -2 -42 43 c-22 24 -58 75 -78
114 l-38 72 26 58 c187 419 271 985 219 1481 -9 81 -17 148 -19 150 -1 2 -107
-8 -235 -22 -128 -14 -234 -25 -237 -25 -2 0 -4 -126 -4 -280 l0 -280 -40 0
-40 0 0 275 0 275 -24 0 c-14 0 -28 -4 -31 -10 -3 -6 1 -7 10 -4 15 6 16 -22
12 -304 -4 -257 -2 -313 9 -323 19 -16 18 -58 -2 -66 -21 -8 -45 22 -37 45 4
10 -3 6 -15 -8 -18 -23 -19 -26 -4 -32 12 -5 8 -7 -12 -7 -28 -1 -28 0 -13 17
21 23 22 43 2 36 -8 -4 -15 -1 -15 5 0 11 13 15 38 12 10 -2 10 5 -1 31 -54
125 -126 289 -266 603 l-160 360 -1 -452 0 -453 -35 0 -35 0 0 533 0 533 -36
84 c-51 118 -64 206 -67 469 -2 196 0 233 16 278 22 62 80 119 132 129 107 20
193 -35 226 -145 27 -91 18 -387 -17 -557 l-6 -32 98 -6 c55 -4 129 -9 167
-12 l67 -6 0 51 0 51 40 0 40 0 0 -49 c0 -58 5 -61 126 -61 94 0 85 -12 106
135 8 54 13 189 13 340 0 283 -6 318 -76 460 -96 196 -269 330 -508 392 -109
28 -334 39 -451 22z m-380 -1924 l0 -685 -35 0 -35 0 0 685 0 685 35 0 35 0 0
-685z m480 -53 c0 -371 0 -378 -20 -378 -11 0 -20 4 -20 9 0 5 -7 7 -15 3 -13
-5 -15 40 -15 369 l0 375 35 0 35 0 0 -378z m-122 -1187 c121 -291 228 -553
238 -581 l18 -51 -33 -41 c-106 -134 -236 -193 -356 -163 -93 23 -145 90 -165
212 -14 91 -13 1026 1 1070 15 45 59 103 70 92 4 -4 107 -246 227 -538z m-608
450 c0 -7 -7 -19 -16 -26 -14 -12 -14 -14 3 -20 14 -6 12 -8 -11 -8 -28 -1
-28 0 -13 17 21 23 22 43 2 36 -8 -4 -15 -2 -15 4 0 13 21 21 38 14 6 -2 12
-10 12 -17z m58 -24 c-4 -38 -42 -36 -46 3 -2 16 2 32 9 37 20 12 40 -11 37
-40z m1092 25 c0 -7 -6 -18 -12 -24 -10 -10 -10 -15 2 -22 11 -7 8 -10 -14
-10 l-29 0 21 23 c28 30 28 40 0 31 -20 -6 -21 -5 -10 9 14 17 42 12 42 -7z
m58 -20 c-2 -23 -8 -31 -23 -31 -23 0 -33 38 -15 60 19 23 41 6 38 -29z
m-1110 -3 c-1 -38 -1 -38 -5 -5 -2 18 -9 30 -14 27 -5 -4 -9 -1 -9 4 0 6 7 11
15 11 11 0 15 -10 13 -37z m60 20 c-1 -10 1 -24 5 -31 10 -14 -16 -27 -37 -19
-12 5 -15 34 -7 65 1 1 10 2 22 2 14 0 19 -6 17 -17z m412 -1 c0 -10 -5 -23
-12 -30 -9 -9 -8 -12 4 -12 11 0 18 10 20 28 4 33 43 44 52 14 12 -38 -2 -50
-61 -51 l-56 0 22 23 c27 28 27 39 0 31 -15 -5 -19 -4 -15 4 12 18 46 13 46
-7z m99 -19 c-2 -31 -3 -33 -6 -10 -2 15 -9 27 -14 27 -6 0 -7 5 -4 10 13 22
25 8 24 -27z m66 2 c0 -24 -5 -31 -24 -33 -18 -3 -22 0 -18 12 3 8 2 18 -3 21
-17 10 2 36 24 33 16 -2 21 -10 21 -33z m2 -1277 c52 -14 64 -24 56 -45 -6
-15 -43 -18 -43 -4 0 20 -33 41 -62 41 -42 0 -98 -57 -98 -100 0 -41 56 -100
95 -100 33 0 65 16 87 44 19 23 24 41 9 31 -19 -11 -20 13 -1 30 16 15 22 15
35 5 16 -13 21 -45 6 -36 -5 3 -18 -10 -30 -30 -13 -21 -36 -41 -58 -51 -75
-31 -156 24 -156 106 0 49 24 88 66 106 40 18 37 18 94 3z m-760 -34 c7 -18
-17 -38 -31 -24 -11 11 -1 40 14 40 6 0 13 -7 17 -16z m1597 6 c-5 -5 -47 -10
-94 -12 l-85 -3 -6 -80 -5 -80 -2 86 c-1 47 1 89 5 92 3 4 49 7 102 7 60 0 92
-3 85 -10z m-1708 -14 c22 -7 45 -11 52 -9 6 3 12 -1 12 -9 0 -7 12 -22 27
-32 26 -19 26 -19 40 0 8 11 11 29 8 44 -6 24 -6 24 12 7 17 -16 17 -19 0 -50
-17 -32 -17 -35 -1 -64 15 -26 16 -33 5 -47 -16 -19 -33 -19 -81 -2 -28 10
-42 10 -75 -1 -73 -25 -110 8 -70 61 13 17 13 22 0 42 -39 60 -6 88 71 60z
m864 -67 c0 -7 -45 -39 -55 -39 -3 0 -5 18 -5 41 l0 40 30 -18 c17 -9 30 -20
30 -24z m795 21 c0 -10 -9 -14 -27 -12 -28 3 -39 -12 -15 -21 9 -4 9 -8 0 -14
-6 -5 -11 -17 -10 -28 1 -11 -4 -20 -10 -19 -7 1 -22 2 -33 3 -11 0 -20 6 -20
11 0 6 9 10 20 10 11 0 20 5 20 10 0 6 -9 10 -20 10 -11 0 -20 5 -20 10 0 6 9
10 20 10 11 0 20 5 20 10 0 6 -9 10 -20 10 -27 0 -25 18 3 22 50 8 92 2 92
-12z m63 -42 c7 -7 12 -24 12 -38 0 -33 -17 -50 -50 -50 -33 0 -50 17 -50 50
0 33 17 50 50 50 14 0 31 -5 38 -12z"/>
<path d="M3710 3384 c0 -31 23 -28 28 4 2 15 -2 22 -12 22 -11 0 -16 -9 -16
-26z"/>
<path d="M4862 3388 c5 -32 28 -35 28 -4 0 17 -5 26 -16 26 -10 0 -14 -7 -12
-22z"/>
<path d="M3820 3370 c0 -5 5 -10 10 -10 6 0 10 5 10 10 0 6 -4 10 -10 10 -5 0
-10 -4 -10 -10z"/>
<path d="M4284 3395 c-3 -8 -3 -19 1 -25 11 -18 25 -11 25 15 0 27 -17 34 -26
10z"/>
<path d="M4390 3400 c0 -5 5 -10 10 -10 6 0 10 5 10 10 0 6 -4 10 -10 10 -5 0
-10 -4 -10 -10z"/>
<path d="M4395 3370 c-3 -5 -2 -10 4 -10 5 0 13 5 16 10 3 6 2 10 -4 10 -5 0
-13 -4 -16 -10z"/>
<path d="M3490 2041 c0 -35 24 -43 55 -19 26 20 26 22 9 29 -36 14 -64 10 -64
-10z"/>
<path d="M3536 1989 c-47 -42 -61 -79 -28 -79 33 0 62 12 62 26 0 8 6 11 15 8
8 -3 29 4 46 17 l32 22 -29 24 c-16 12 -34 23 -40 23 -6 0 -32 -18 -58 -41z
m24 -29 c0 -11 -6 -20 -14 -20 -18 0 -29 16 -21 30 11 18 35 11 35 -10z"/>
<path d="M3641 1949 c-28 -23 -25 -28 23 -36 39 -6 44 3 26 38 -13 24 -19 23
-49 -2z"/>
<path d="M4370 2000 c0 -5 5 -10 10 -10 6 0 10 5 10 10 0 6 -4 10 -10 10 -5 0
-10 -4 -10 -10z"/>
<path d="M5215 1964 c-18 -18 -16 -33 7 -47 21 -14 48 -2 48 22 0 30 -34 45
-55 25z m41 -15 c10 -17 -13 -36 -27 -22 -12 12 -4 33 11 33 5 0 12 -5 16 -11z"/>
<path d="M4981 3974 c0 -11 3 -14 6 -6 3 7 2 16 -1 19 -3 4 -6 -2 -5 -13z"/>
<path d="M4980 3385 c0 -17 5 -25 13 -22 6 2 12 12 12 22 0 10 -6 20 -12 23
-8 2 -13 -6 -13 -23z"/>
<path d="M6160 1990 c0 -150 4 -270 9 -270 18 0 84 84 108 137 34 75 37 187 6
255 -26 58 -66 111 -99 132 l-24 16 0 -270z"/>
<path d="M3905 1081 c-16 -4 -40 -13 -52 -20 -52 -27 -70 -129 -33 -181 l20
-28 -33 -21 c-49 -30 -77 -87 -77 -158 0 -68 23 -112 78 -150 64 -42 217 -38
275 8 31 24 40 24 61 0 17 -19 85 -41 125 -41 19 0 21 6 21 70 0 69 0 70 -24
64 -16 -4 -31 2 -50 18 l-26 23 23 40 c18 31 29 40 50 40 l27 -1 0 93 c0 57
-4 93 -10 93 -18 0 -98 -80 -131 -131 l-32 -50 -18 29 c-9 17 -23 33 -29 37
-8 5 0 20 25 45 64 66 57 168 -15 205 -35 18 -133 27 -175 16z m107 -98 c38
-34 11 -103 -40 -103 -54 0 -81 62 -45 102 20 22 61 23 85 1z m-2 -240 c44
-40 45 -80 1 -110 -67 -45 -141 -15 -141 57 0 75 82 105 140 53z"/>
<path d="M478 1068 c17 -17 17 -549 0 -566 -9 -9 43 -12 235 -12 224 0 247 -2
256 -17 8 -13 10 9 10 82 0 85 -2 97 -13 83 -12 -16 -33 -18 -175 -18 l-161 0
0 220 c0 198 2 220 18 229 12 8 -10 10 -82 11 -78 0 -97 -3 -88 -12z"/>
<path d="M4718 1068 c17 -17 17 -549 0 -566 -9 -9 10 -12 87 -12 73 1 95 3 83
11 -16 9 -18 34 -18 284 0 250 2 275 18 284 12 8 -10 10 -82 11 -78 0 -97 -3
-88 -12z"/>
<path d="M1507 1003 c-6 -10 -62 -13 -225 -13 -168 0 -213 -3 -204 -12 17 -17
17 -459 0 -476 -9 -9 36 -12 203 -12 154 0 218 -3 227 -12 9 -9 12 4 12 60 0
67 -10 92 -24 57 -4 -12 -30 -15 -141 -15 l-135 0 0 60 0 60 88 0 c55 0 92 -4
100 -12 9 -9 12 3 12 57 0 54 -3 66 -12 57 -8 -8 -45 -12 -100 -12 l-88 0 0
50 0 50 139 0 c102 0 141 -3 144 -12 10 -30 18 5 15 68 -2 40 -6 64 -11 57z"/>
<path d="M6617 1003 c-6 -10 -62 -13 -225 -13 -168 0 -213 -3 -204 -12 17 -17
17 -459 0 -476 -9 -9 36 -12 203 -12 154 0 218 -3 227 -12 9 -9 12 4 12 60 0
67 -10 92 -24 57 -4 -12 -30 -15 -141 -15 l-135 0 0 60 0 60 88 0 c55 0 92 -4
100 -12 9 -9 12 3 12 57 0 54 -3 66 -12 57 -8 -8 -45 -12 -100 -12 l-88 0 0
50 0 50 139 0 c102 0 141 -3 144 -12 10 -30 18 5 15 68 -2 40 -6 64 -11 57z"/>
<path d="M7252 930 c0 -47 2 -79 5 -72 3 8 29 12 79 12 l74 0 0 -180 c0 -113
-4 -180 -10 -180 -5 0 -10 -4 -10 -10 0 -6 34 -10 82 -10 64 0 79 3 70 12 -8
8 -12 65 -12 190 l0 178 74 0 c50 0 76 -4 79 -12 3 -7 5 25 5 72 0 47 -2 79
-5 73 -3 -10 -56 -13 -213 -13 -157 0 -210 3 -213 13 -3 6 -5 -26 -5 -73z"/>
<path d="M1792 968 c0 -23 -142 -427 -162 -460 -9 -16 -4 -18 61 -18 56 0 69
3 61 13 -7 8 -5 23 5 50 l15 37 108 0 108 0 12 -30 c7 -16 10 -39 7 -50 -5
-19 0 -20 75 -20 76 0 80 1 66 18 -23 27 -181 449 -175 466 6 14 -6 16 -87 16
-90 0 -94 -1 -94 -22z m128 -196 c18 -45 30 -85 27 -88 -2 -3 -36 -4 -74 -2
l-70 3 35 93 c20 51 39 89 42 85 4 -5 22 -45 40 -91z"/>
<path d="M2270 980 c0 -5 5 -10 10 -10 6 0 10 -83 10 -230 0 -147 -4 -230 -10
-230 -5 0 -10 -4 -10 -10 0 -6 34 -10 83 -10 70 1 80 3 65 14 -15 11 -18 29
-18 95 l0 81 48 0 47 -1 34 -75 c29 -63 33 -79 23 -95 -12 -18 -8 -19 85 -19
79 1 95 3 82 13 -9 7 -35 47 -58 90 l-43 77 45 44 c52 50 65 98 47 167 -15 55
-43 86 -89 99 -48 13 -351 13 -351 0z m314 -102 c21 -29 20 -67 -1 -90 -13
-15 -31 -18 -100 -18 l-83 0 0 65 0 65 84 0 c76 0 86 -2 100 -22z"/>
<path d="M2828 978 c17 -17 17 -459 0 -476 -9 -9 7 -12 72 -12 74 1 83 2 67
14 -16 12 -17 30 -15 166 l3 152 95 -123 c52 -67 104 -136 114 -152 19 -29 19
-30 1 -43 -16 -12 -8 -14 70 -14 69 0 86 3 77 12 -17 17 -17 459 0 476 9 9 -7
12 -73 12 -72 -1 -81 -3 -66 -14 14 -11 17 -30 17 -125 0 -62 -4 -110 -9 -107
-5 3 -44 51 -86 107 -67 88 -77 104 -67 120 12 18 7 19 -100 19 -87 0 -109 -3
-100 -12z"/>
<path d="M5058 978 c17 -17 17 -459 0 -476 -9 -9 7 -12 73 -12 73 1 82 2 66
14 -16 12 -17 30 -15 166 l3 152 95 -123 c52 -67 104 -136 114 -152 19 -29 19
-30 1 -43 -16 -12 -8 -14 70 -14 69 0 86 3 77 12 -17 17 -17 459 0 476 9 9 -7
12 -73 12 -72 -1 -81 -3 -66 -14 14 -11 17 -30 17 -125 0 -62 -4 -110 -9 -107
-5 3 -44 51 -86 107 -67 88 -77 104 -67 120 12 18 7 19 -100 19 -87 0 -109 -3
-100 -12z"/>
<path d="M5642 973 c13 -16 60 -166 118 -376 17 -61 19 -81 9 -93 -10 -12 3
-14 90 -14 96 0 101 1 90 18 -10 15 2 59 61 238 40 120 77 225 83 232 7 9 -8
12 -69 12 -56 0 -75 -3 -67 -11 8 -8 -2 -50 -35 -150 -26 -76 -49 -139 -53
-139 -3 0 -24 62 -47 138 -36 124 -39 138 -24 150 13 10 -1 12 -78 12 -88 0
-92 -1 -78 -17z"/>
<path d="M6871 980 c-74 -18 -131 -86 -131 -159 0 -83 41 -115 176 -136 97
-16 124 -28 124 -55 0 -35 -43 -53 -113 -47 -72 6 -147 33 -147 53 0 29 -20
13 -29 -24 -21 -76 -25 -108 -11 -96 9 9 26 8 68 -4 31 -9 98 -16 147 -16 74
-1 96 3 125 20 52 30 80 78 80 136 0 69 -41 111 -125 128 -166 33 -170 34
-173 57 -5 32 33 53 95 53 60 0 133 -25 133 -46 0 -20 17 -17 23 4 2 9 14 41
26 70 20 49 20 53 3 48 -9 -3 -49 1 -87 9 -76 16 -131 17 -184 5z"/>
</g>
</svg>
